<svg xmlns="http://www.w3.org/2000/svg" width="1000" height="1000" viewBox="0 0 1000 1000" version="1.1">
	<path d="M 288.795 164.435 C 274.581 166.949, 261.573 171.947, 249.221 179.643 L 241.941 184.179 230.862 181.973 C 221.340 180.077, 217.586 179.836, 204.142 180.263 C 192.633 180.627, 186.518 181.306, 181 182.830 C 159.634 188.732, 139.619 200.783, 130.249 213.388 C 121.150 225.629, 113.708 245.485, 111.452 263.534 L 110.742 269.218 105.621 271.301 C 86.853 278.937, 71.062 289.312, 57.578 302.866 C 46.263 314.239, 38.180 325.655, 30.930 340.500 C 24.317 354.041, 20.942 363.797, 17.807 378.435 C 14.859 392.200, 14.645 418.917, 17.365 433.500 C 21.364 454.934, 31.663 479.733, 44.585 499.038 L 50.159 507.365 48.526 515.432 C 36.583 574.446, 58.658 624.619, 107.625 649.755 C 129.879 661.178, 149.272 665.982, 173.417 666.049 C 191.032 666.099, 208.236 662.583, 219.901 656.551 C 221.708 655.617, 223.428 655.094, 223.723 655.390 C 224.019 655.686, 224.475 661.006, 224.737 667.214 C 225.749 691.201, 219.829 719.161, 204.994 760.463 C 202.260 768.074, 201.871 770.261, 202.411 774.963 C 203.272 782.464, 207.245 790.251, 212.318 794.385 C 220.904 801.380, 215.646 801, 303.926 801 L 383.607 801 388.759 798.433 C 398.783 793.438, 404.450 784.066, 404.440 772.500 C 404.436 766.594, 403.716 763.625, 399.833 753.500 C 394.536 739.686, 390.969 727.839, 387.648 713.031 C 386.321 707.114, 384.743 702.414, 384 702.167 C 382.984 701.828, 382.839 702.810, 383.353 706.562 C 384.881 717.704, 390.230 736.012, 399.547 761.984 C 401.638 767.812, 402.114 770.604, 401.701 774.606 C 400.728 784.031, 394.721 792.380, 386.011 796.412 C 381.580 798.463, 380.159 798.505, 305.610 798.780 C 219.152 799.099, 222.520 799.373, 213.926 791.334 C 207.725 785.534, 204.551 777.825, 205.349 770.500 C 205.648 767.750, 207.515 761.450, 209.499 756.500 C 222.125 724.982, 229.994 682.599, 227.253 660.878 C 226.620 655.868, 225.858 651.524, 225.558 651.224 C 225.258 650.924, 221.522 652.316, 217.256 654.317 C 188.205 667.946, 149.311 666.141, 113.278 649.493 C 89.738 638.617, 68.787 618.046, 58.533 595.742 C 47.652 572.073, 45.439 546.352, 51.586 515 L 53.253 506.500 46.587 496.500 C 34.552 478.446, 25.680 457.564, 20.816 435.844 C 18.851 427.066, 18.500 422.698, 18.500 407 C 18.500 391.284, 18.850 386.938, 20.824 378.119 C 31.799 329.103, 62.666 291.469, 105.495 274.887 C 111.835 272.432, 112.568 271.858, 113.216 268.837 C 113.610 267.002, 115.027 260.290, 116.364 253.922 C 122.949 222.567, 136.515 204.872, 163.543 192.385 C 185.817 182.094, 211.146 179.771, 234.924 185.839 L 242.349 187.734 249.264 183.260 C 258.843 177.064, 269.198 172.452, 280.717 169.253 C 289.540 166.802, 292.118 166.536, 307 166.534 C 323.072 166.532, 323.747 166.618, 333 169.825 C 345.399 174.123, 355.610 180.583, 365.016 190.077 L 372.626 197.759 381.063 195.824 C 393.192 193.043, 419.399 192.291, 432.012 194.364 C 458.474 198.712, 481.479 209.454, 501.310 226.723 C 532.046 253.487, 547.959 292.697, 547.992 341.750 L 548 354 557.750 363.767 C 584.038 390.102, 599.099 425.973, 600.675 466 C 602.060 501.180, 589.707 531.641, 563.512 557.639 C 555.613 565.478, 540.914 577.152, 536.250 579.290 C 535.013 579.857, 534 581.149, 534 582.161 C 534 584.364, 535.341 584.514, 537.739 582.578 C 538.707 581.796, 544.023 577.784, 549.550 573.664 C 572.928 556.235, 589.977 533.274, 597.935 508.500 C 602.585 494.025, 603.437 487.903, 603.362 469.500 C 603.304 455.241, 602.873 450.483, 600.690 439.993 C 594.053 408.103, 581.292 383.337, 560.797 362.575 L 551 352.649 551 342.431 C 551 313.664, 545.103 286.039, 534.408 264.709 C 527.603 251.137, 520.701 241.648, 509.525 230.500 C 489.438 210.463, 465.840 197.820, 438.270 192.324 C 425.703 189.818, 397.024 189.834, 383.683 192.354 L 373.867 194.209 366.683 187.290 C 355.256 176.282, 344.471 169.863, 330.829 165.947 C 321.363 163.231, 299.961 162.461, 288.795 164.435 M 292.075 192.087 C 277.817 194.885, 259.878 204.177, 251.177 213.272 L 247.855 216.745 240.854 213.803 C 230.306 209.372, 221.137 207.709, 207.500 207.755 C 192.723 207.806, 183.729 209.980, 170.907 216.602 C 151.596 226.576, 143.696 238.614, 139.476 264.500 C 138.668 269.450, 138.006 274.043, 138.004 274.707 C 138.001 275.640, 159.584 275.990, 232.750 276.247 C 320.514 276.555, 327.979 276.713, 334 278.389 C 355.238 284.303, 368.695 297.290, 374.702 317.671 C 376.207 322.775, 376.470 330.094, 376.815 376.500 C 377.174 424.663, 377.336 428.907, 378.592 423 C 380.350 414.726, 387.304 400.375, 393.608 392.007 C 408.662 372.027, 431.834 353.007, 453.160 343.128 C 466.359 337.013, 471 335.071, 471 335.662 C 471 335.964, 469.846 337.583, 468.435 339.260 C 462.081 346.811, 454.945 365.004, 452.970 378.689 C 451.456 389.176, 452.756 399.458, 457.421 413.902 C 462.963 431.062, 464.294 439.424, 463.779 453.868 C 463.396 464.627, 462.958 467.319, 460.819 472.027 C 456.254 482.073, 443.764 493.412, 426.730 502.974 L 420.961 506.213 415.274 501.857 C 394.694 486.090, 380.910 464.888, 377.661 444 C 377.447 442.625, 377.211 454.212, 377.136 469.750 L 377 498 355.500 498 L 334 498 334 415.734 C 334 337.397, 333.911 333.302, 332.137 329.984 C 331.112 328.068, 328.750 325.600, 326.887 324.500 C 323.604 322.561, 321.441 322.492, 256.250 322.223 C 219.262 322.071, 189 322.104, 189 322.298 C 189 322.491, 190.125 325.957, 191.500 330 C 194.967 340.193, 198.581 357.993, 200.435 374 C 201.294 381.425, 201.998 387.837, 201.999 388.250 C 201.999 388.663, 204.363 389.014, 207.250 389.031 C 212.465 389.062, 225 390.444, 230.232 391.566 L 232.965 392.151 231.282 387.826 C 230.015 384.566, 229.588 380.175, 229.550 370 C 229.503 357.239, 229.655 356.165, 232.327 350.383 C 235.728 343.024, 241.718 336.898, 248.500 333.844 C 256.056 330.441, 272.341 330.005, 280.282 332.992 C 288.095 335.932, 293.716 340.468, 297.174 346.625 C 302.785 356.617, 302.964 359.233, 302.983 431.750 L 303 498 281.652 498 L 260.305 498 259.662 486.747 C 258.652 469.056, 255.457 459.209, 247.969 450.702 C 240.185 441.859, 228.952 436.847, 213 435.098 C 208.325 434.585, 204.357 434.310, 204.182 434.485 C 204.006 434.661, 203.487 438.786, 203.028 443.652 C 201.294 462.041, 196.793 472.942, 186.374 483.987 C 177.102 493.815, 169.507 497.500, 158.521 497.500 C 147.899 497.500, 141.114 494.307, 131.866 484.957 C 118.831 471.777, 114.892 458.321, 118.316 438.668 C 121.927 417.946, 133.813 403.187, 152.750 395.911 C 156.188 394.591, 159 392.987, 159 392.347 C 159 391.707, 158.282 385.630, 157.404 378.842 C 154.324 355.019, 148.451 337.139, 140.870 328.505 C 136.364 323.372, 134.464 322.569, 125.500 322.004 L 117.500 321.500 117.219 309.250 C 117.065 302.512, 116.636 297, 116.265 297 C 115.895 297, 111.450 299.015, 106.386 301.478 C 79.353 314.629, 59.152 338.618, 48.599 370.099 C 40.409 394.532, 41.375 426.915, 51.042 452 C 55.289 463.022, 65.236 480.797, 73.038 491.304 L 81.027 502.064 79.016 508.188 C 74.948 520.580, 73.536 530.753, 73.629 547 C 73.701 559.444, 74.138 564.077, 75.849 570.500 C 78.720 581.276, 85.692 595.079, 92.292 603.050 C 118.641 634.878, 174.916 648.189, 209.493 630.774 C 216.087 627.453, 225.560 620.324, 229.428 615.771 L 233.057 611.500 236.095 615 C 243.259 623.252, 249.829 641.119, 252.091 658.500 C 255.270 682.925, 247.395 727.159, 233.431 763.317 C 231.544 768.203, 230 772.606, 230 773.100 C 230 773.625, 260.774 774, 303.847 774 L 377.694 774 373.272 761.812 C 370.839 755.109, 367.202 744.084, 365.189 737.312 L 361.528 725 358.014 724.994 C 351.927 724.985, 346.942 722.987, 342.244 718.674 C 336.874 713.743, 334.052 708.115, 334.022 702.272 L 334 698.045 329.921 702.470 C 324.808 708.017, 318.858 710.433, 311.944 709.769 C 302.373 708.849, 297.845 702.854, 297.882 691.151 C 297.896 686.797, 302.537 658.337, 310.452 614.070 C 317.353 575.472, 323 543.287, 323 542.548 C 323 541.498, 319.459 541.107, 306.750 540.755 C 289.155 540.267, 283.155 538.923, 279.043 534.546 C 273.468 528.611, 274.928 517.079, 282.058 510.736 C 290.125 503.559, 290.690 503.500, 351 503.500 L 404.500 503.500 410.090 506.245 C 417.226 509.750, 419.491 513.542, 418.792 520.818 C 417.818 530.945, 410.504 537.511, 397.526 539.911 C 394.285 540.510, 385.509 541, 378.024 541 L 364.416 541 352.697 606.655 C 346.251 642.766, 341.100 672.434, 341.251 672.584 C 341.401 672.735, 346.427 659.277, 352.418 642.679 C 368.714 597.531, 371.032 593.255, 382.500 587.178 C 386.776 584.912, 388.730 584.528, 396 584.528 C 403.261 584.528, 405.229 584.913, 409.500 587.171 C 419.327 592.365, 422.492 597.378, 431.023 621.260 L 437.896 640.500 437.948 625.886 C 438.007 609.334, 439.010 602.472, 442.314 596.009 C 446.976 586.888, 458.570 582.264, 469.087 585.332 C 476.446 587.478, 481.749 592.264, 492.025 606.034 C 496.571 612.126, 500.620 616.747, 501.022 616.305 C 501.923 615.314, 504.739 606.734, 506.652 599.151 C 507.436 596.043, 508.349 587.304, 508.679 579.731 L 509.281 565.961 516.391 562.241 C 526.029 557.197, 541.310 545.562, 548.773 537.584 C 561.103 524.403, 568.969 510.328, 573.688 493 C 576.328 483.306, 576.087 456.921, 573.239 443.927 C 569.263 425.790, 563.665 412.252, 554.295 398.117 C 547.947 388.540, 535.149 375.188, 527.530 370.194 L 522.561 366.936 522.477 342.718 C 522.412 323.643, 522.019 316.711, 520.625 310.074 C 513.506 276.166, 497.889 252.296, 471.660 235.236 C 454.245 223.908, 438.121 219.046, 415.500 218.300 C 396.156 217.663, 383.697 219.632, 362.923 226.613 C 361.790 226.994, 360.245 225.246, 357.423 220.390 C 349.515 206.777, 336.092 196.082, 322.458 192.531 C 316.066 190.866, 299.530 190.625, 292.075 192.087 M 132 299.953 C 132 312.936, 132.011 313, 134.322 313 C 138.692 313, 145.925 316.162, 149.951 319.831 C 157.599 326.803, 163.799 340.255, 167.540 358 C 169.746 368.462, 171.957 385.435, 171.980 392.086 L 172 397.672 165.754 399.409 C 146.655 404.719, 135.766 417.142, 132.939 436.850 C 131.411 447.496, 132.140 454.369, 135.498 460.995 C 138.821 467.553, 145.999 475.328, 151.966 478.831 C 167.660 488.045, 189.063 473.171, 194.709 449.126 C 196.187 442.833, 196.466 437.615, 196.308 419.269 C 195.889 370.804, 191.053 342.532, 178.337 314.218 C 177.871 313.181, 191.374 312.990, 249.131 313.218 C 315.398 313.480, 320.786 313.629, 324.500 315.303 C 329.559 317.583, 333.584 321.389, 336.342 326.500 C 338.491 330.484, 338.501 330.811, 338.780 406.250 L 339.060 482 350.530 482 L 362 482 361.983 405.750 C 361.964 323.105, 361.877 321.612, 356.493 310.986 C 351.013 300.172, 342.100 293.273, 328.500 289.319 C 323.018 287.725, 314.281 287.546, 227.250 287.240 L 132 286.906 132 299.953 M 257.326 339.988 C 249.546 341.631, 245.121 344.962, 241.367 352 C 239.830 354.881, 239.500 357.714, 239.500 368.022 C 239.500 379.488, 239.716 380.964, 242.055 385.513 C 245.698 392.600, 251.965 396.320, 261.131 396.838 L 268 397.226 268 406.198 L 268 415.170 263.076 411.556 C 250.892 402.612, 233.215 397.005, 212.250 395.435 L 203 394.742 203 407.723 L 203 420.704 211.807 421.275 C 235.996 422.842, 252.590 432.297, 261.024 449.317 C 265.113 457.568, 267.893 468.956, 267.965 477.750 L 268 482 279.500 482 L 291 482 291 421.159 C 291 355.270, 290.961 354.749, 285.548 347.652 C 284.058 345.699, 280.963 343.198, 278.670 342.094 C 273.817 339.759, 263.318 338.723, 257.326 339.988 M 261.357 358.980 C 255.695 361.295, 253.982 371.073, 258.455 375.545 C 263.324 380.415, 271.926 378.126, 273.585 371.519 C 274.473 367.980, 273.289 362.564, 271.230 360.749 C 268.970 358.755, 264.059 357.876, 261.357 358.980 M 431.256 375.437 C 430.022 376.120, 429.254 376.920, 429.549 377.216 C 429.845 377.511, 429.368 378.028, 428.491 378.365 C 427.422 378.775, 427.138 378.586, 427.630 377.790 C 428.381 376.574, 422.739 381.517, 418.258 386 C 416.884 387.375, 415.363 388.387, 414.880 388.250 C 414.396 388.113, 414 388.509, 414 389.131 C 414 389.752, 412.371 392.528, 410.381 395.299 C 407.034 399.957, 406.767 400.854, 406.827 407.226 C 406.892 414.144, 408.805 422.343, 411.440 427 C 413.074 429.886, 412.975 430.092, 415.503 418.500 C 417.899 407.512, 421.753 397.251, 428.212 384.659 C 431.220 378.796, 433.640 374.044, 433.590 374.098 C 433.541 374.152, 432.490 374.755, 431.256 375.437 M 401.586 412 C 401.117 413.925, 400.793 415.837, 400.866 416.250 C 400.940 416.663, 400.580 417, 400.066 417 C 399.553 417, 399.343 418.161, 399.600 419.580 C 399.920 421.344, 399.707 421.937, 398.927 421.455 C 398.149 420.974, 397.992 421.398, 398.434 422.791 C 398.790 423.913, 398.651 425.098, 398.124 425.423 C 397.598 425.749, 397.309 428.532, 397.482 431.609 C 397.848 438.109, 402.905 449.087, 408.488 455.500 L 411.970 459.500 411.985 448.230 C 411.998 438.135, 411.756 436.571, 409.663 433.230 C 406.238 427.762, 403.826 420.804, 403.089 414.264 C 402.450 408.591, 402.426 408.555, 401.586 412 M 168.456 423.927 C 166.280 424.912, 163.730 426.585, 162.788 427.645 C 160.107 430.664, 156.960 438.539, 156.350 443.751 C 155.895 447.648, 156.186 448.994, 157.970 451.250 C 162.386 456.833, 168.772 453.203, 171.464 443.581 C 173.283 437.079, 174.491 423.422, 173.312 422.693 C 172.817 422.387, 170.631 422.942, 168.456 423.927 M 397.067 452.500 C 400.348 467.287, 401.393 470.872, 404.022 476.354 C 407.715 484.054, 410.694 488.892, 414.373 493.164 C 417.066 496.290, 417.211 496.343, 416.677 494 C 416.363 492.625, 415.372 487.450, 414.473 482.500 C 413.574 477.550, 412.537 472.986, 412.169 472.358 C 411.308 470.888, 399.472 453.128, 397.602 450.500 C 396.319 448.696, 396.267 448.893, 397.067 452.500 M 561.500 471.145 C 549.289 480.575, 525.854 485.349, 503.351 482.991 C 475.420 480.064, 469.065 480.558, 457.237 486.574 C 447.306 491.626, 439.871 499.251, 434.558 509.834 C 432.044 514.843, 431.978 515.317, 433.468 517.592 C 435.987 521.435, 445.873 528.788, 453.528 532.509 C 461.725 536.495, 470.281 538.653, 481.608 539.592 C 510.201 541.962, 541.059 519.614, 559.377 483.270 C 561.955 478.157, 566.203 467.973, 565.735 468.028 C 565.606 468.043, 563.700 469.446, 561.500 471.145 M 522.519 505.693 C 520.879 506.580, 515.029 509.023, 509.519 511.122 L 499.500 514.938 508.823 514.969 L 518.146 515 521.770 510.964 C 523.763 508.744, 525.490 506.269, 525.608 505.464 C 525.726 504.659, 525.750 504.018, 525.662 504.040 C 525.573 504.062, 524.158 504.806, 522.519 505.693 M 479.500 518.403 L 472.500 519.656 478.500 521.531 C 485.659 523.768, 506.563 524.323, 507.809 522.309 C 508.214 521.653, 509.885 520.419, 511.523 519.565 C 514.458 518.034, 514.394 518.012, 507 517.999 C 502.875 517.992, 496.575 517.798, 493 517.568 C 489.425 517.338, 483.350 517.713, 479.500 518.403 M 457.500 520.917 C 454.588 521.571, 454.677 521.659, 460.500 523.920 C 467.436 526.613, 469.017 526.931, 478.500 527.544 L 485.500 527.996 479.500 526.601 C 476.200 525.833, 471.250 524.317, 468.500 523.231 C 460.920 520.236, 460.717 520.194, 457.500 520.917 M 910.351 595.411 C 882.720 600.683, 866.695 624.048, 868.358 656.638 C 869.663 682.214, 883.057 701.608, 903.855 708.036 C 910.953 710.229, 926.291 710.691, 933.888 708.939 C 950.399 705.133, 964.272 690.674, 968.460 672.907 C 970.684 663.474, 970.475 653.291, 967.974 649.190 C 964.807 643.995, 961.073 642.999, 944.782 643.006 C 924.171 643.014, 920 644.733, 920 653.223 C 920 660.088, 925.558 662.984, 938.750 662.994 L 946 663 946 666.322 C 946 676.677, 937.725 686.877, 927.624 688.974 C 917.934 690.986, 907.344 687.573, 901.057 680.412 C 894.543 672.993, 891.348 661.029, 892.295 647.603 C 893.480 630.816, 900.869 620.134, 913.925 616.335 C 922.132 613.947, 928.310 615.002, 940.863 620.935 C 946.757 623.721, 952.758 626, 954.200 626 C 955.900 626, 957.732 624.918, 959.411 622.923 C 967.029 613.870, 957.552 601.220, 939.500 596.345 C 931.879 594.286, 918.494 593.858, 910.351 595.411 M 676.887 596.451 C 668.585 598.740, 662.614 602.364, 655.408 609.489 C 643.703 621.060, 639.514 632.395, 639.514 652.500 C 639.514 666.414, 640.796 672.594, 645.839 682.986 C 652.038 695.761, 663.141 704.979, 676.535 708.467 C 684.424 710.522, 701.017 710.481, 708.068 708.388 C 726.182 703.014, 738.999 688.950, 743.566 669.435 C 745.916 659.393, 745.156 638.872, 742.109 630.113 C 736.481 613.937, 724.243 601.630, 709.145 596.964 C 701.679 594.657, 684.390 594.382, 676.887 596.451 M 560.500 596.945 C 555.087 599.161, 553.221 605.693, 556.313 611.606 C 557.145 613.198, 564.165 623.697, 571.913 634.937 L 586 655.374 586 677.219 C 586 702.231, 586.607 705.102, 592.402 707.523 C 596.670 709.307, 601.143 708.541, 603.957 705.546 C 606.986 702.322, 607.988 694.226, 607.994 672.911 L 608 654.321 617.650 640.411 C 636.388 613.398, 639.003 609.073, 638.968 605.141 C 638.933 601.142, 637.648 598.938, 634.316 597.163 C 628.088 593.846, 623.251 596.979, 614.301 610.124 C 610.416 615.831, 604.981 623.774, 602.224 627.775 L 597.210 635.051 584.985 617.438 C 570.766 596.953, 567.389 594.126, 560.500 596.945 M 765.365 597.169 C 760.550 599.501, 760.500 600.068, 760.500 652.402 C 760.500 698.349, 760.618 701.673, 762.332 704.199 C 766.056 709.688, 774.483 709.910, 778.432 704.625 C 780.401 701.989, 780.524 700.249, 781 668.212 L 781.500 634.567 807.856 669.863 C 823.602 690.949, 835.478 705.931, 837.356 707.076 C 844.773 711.598, 852.256 708.256, 853.477 699.876 C 853.828 697.469, 853.976 675.025, 853.807 650 C 853.473 600.549, 853.447 600.317, 847.855 597.425 C 842.618 594.717, 836.556 596.569, 833.945 601.675 C 832.805 603.903, 832.394 611.444, 832 637.358 L 831.500 670.216 805.280 635.111 C 788.887 613.164, 777.830 599.257, 775.780 598.007 C 772.214 595.833, 768.707 595.551, 765.365 597.169 M 391 599.121 C 387.818 600.386, 383.227 604.724, 381.429 608.165 C 378.148 614.444, 349 696.657, 349 699.632 C 349 704.211, 350.910 707.902, 354.145 709.575 C 361.511 713.384, 366.694 709.483, 370.851 697 L 373.682 688.500 395.935 688.500 L 418.188 688.500 420.563 696 C 423.638 705.712, 424.844 707.868, 428.165 709.585 C 436.371 713.829, 445.175 707.627, 443.715 698.632 C 443.051 694.542, 414.448 612.874, 411.972 608 C 407.722 599.633, 399 595.940, 391 599.121 M 459.110 599.396 C 454.063 602.193, 454.073 602.084, 454.035 654.102 L 454 702.704 456.284 706.102 C 460.366 712.176, 468.790 712.299, 472.698 706.341 C 474.314 703.877, 474.552 700.184, 475 670.547 L 475.500 637.500 501.425 672.101 C 515.684 691.131, 528.762 707.669, 530.487 708.851 C 536.704 713.111, 544.972 711.008, 546.511 704.775 C 546.820 703.524, 546.944 680.373, 546.787 653.330 L 546.500 604.160 544.090 601.595 C 539.100 596.285, 531.012 597.477, 527.752 604.001 C 526.196 607.115, 526.003 611.049, 526.002 639.750 C 526.001 657.487, 525.663 671.976, 525.250 671.946 C 524.837 671.916, 512.816 656.160, 498.536 636.931 C 476.547 607.323, 471.944 601.667, 468.470 599.986 C 463.700 597.677, 462.364 597.592, 459.110 599.396 M 684.994 615.934 C 680.434 617.321, 676.547 619.786, 672.799 623.668 C 659.433 637.510, 660.171 669.887, 674.141 682.509 C 676.385 684.536, 679.859 686.894, 681.860 687.749 C 686.410 689.692, 696.242 689.853, 701.444 688.069 C 707.254 686.077, 714.266 678.996, 717.620 671.734 C 720.330 665.868, 720.499 664.732, 720.482 652.500 C 720.461 636.581, 718.469 630.374, 710.980 622.884 C 704.317 616.222, 693.531 613.337, 684.994 615.934 M 388.242 642.742 C 383.734 656.292, 380.197 667.530, 380.382 667.715 C 380.567 667.901, 387.700 667.928, 396.233 667.776 L 411.747 667.500 404.446 643.156 C 400.431 629.767, 396.987 618.654, 396.793 618.459 C 396.598 618.265, 392.751 629.192, 388.242 642.742 M 698.270 727.685 C 695.216 728.300, 692 732.657, 692 736.180 C 692 740.300, 695.774 743.694, 701.272 744.518 C 703.760 744.891, 712.178 745.040, 719.979 744.848 C 732.634 744.538, 734.316 744.291, 735.582 742.559 C 737.449 740.003, 737.383 736.525, 735.429 734.571 C 734.176 733.319, 731.439 733, 721.929 733 C 714.831 733, 710 732.604, 710 732.023 C 710 729.538, 702.621 726.809, 698.270 727.685 M 618.502 755.446 C 615.436 759.035, 612.371 761.457, 609.515 762.548 C 602.508 765.223, 602.388 771.220, 609.304 773.082 C 611.545 773.685, 614.869 775.669, 616.690 777.490 C 619.684 780.484, 620 781.359, 619.996 786.650 C 619.990 796.613, 614.756 802, 605.083 802 L 601.101 802 600.801 778.048 C 600.586 760.940, 600.153 753.750, 599.285 752.883 C 597.660 751.260, 588.157 750.570, 584.881 751.838 C 580.148 753.669, 580.835 762.110, 585.775 762.820 C 587.999 763.139, 588 763.149, 588 785.459 C 588 812.834, 587.682 812.085, 599.585 812.761 C 615.622 813.673, 625.142 809.852, 629.907 800.591 C 635.202 790.302, 633.389 777.588, 625.760 771.500 L 622.288 768.729 627.144 764.048 C 632.510 758.876, 633.531 754.695, 630.171 751.655 C 626.717 748.529, 623.526 749.565, 618.502 755.446 M 639.513 751.507 C 633.346 753.704, 631.229 758.196, 634.351 762.465 C 635.505 764.043, 636.417 764.195, 640.601 763.506 C 648.831 762.152, 651.168 762.494, 653.686 765.422 C 655.944 768.046, 656 768.617, 656 788.833 C 656 812.749, 656.435 814.341, 662.822 813.805 C 668.741 813.308, 669.104 811.674, 668.771 787 C 668.502 766.980, 668.328 765.211, 666.250 761.308 C 661.271 751.956, 649.929 747.798, 639.513 751.507 M 682.839 752.463 C 680.845 753.818, 678.266 756.885, 677.107 759.279 C 675.155 763.310, 675 765.294, 675 786.161 C 675 813.295, 674.647 812.500, 686.683 812.500 C 692.927 812.500, 694.391 812.180, 695.579 810.559 C 698.935 805.975, 696.222 801, 690.365 801 L 686.874 801 687.187 783.033 C 687.447 768.091, 687.773 764.794, 689.120 763.449 C 690.612 761.960, 691.016 762.075, 694.252 764.916 C 698.604 768.737, 699.697 768.751, 704.038 765.041 C 705.942 763.413, 707.765 762.063, 708.089 762.041 C 710.234 761.893, 711 768.682, 711 787.825 C 711 811.347, 711.427 813, 717.500 813 C 723.549 813, 724.003 811.283, 723.976 788.527 C 723.949 766.678, 723.175 761.229, 719.392 756.269 C 714.614 750.005, 708.287 748.423, 702.447 752.033 L 699.157 754.066 695.829 752.037 C 691.397 749.335, 687.242 749.472, 682.839 752.463 M 728.750 751.080 C 727.164 752.004, 727.002 754.221, 727.022 774.800 C 727.047 800.379, 727.563 802.775, 734.330 808.716 C 740.861 814.451, 749.679 815.347, 758.180 811.141 C 762.280 809.113, 762.327 809.112, 764.789 811.049 C 768.747 814.162, 775.448 813.706, 779.077 810.077 C 782.896 806.257, 782.872 802.718, 779 798.846 L 776 795.846 776 774.923 C 776 755.333, 775.873 753.873, 774 752 C 771.657 749.657, 768.176 749.420, 765.441 751.417 C 763.652 752.724, 763.461 754.529, 763 774.502 L 762.500 796.170 759.258 799.064 C 757.474 800.656, 754.825 802.257, 753.371 802.622 C 749.328 803.636, 743.938 801.832, 741.596 798.680 C 739.646 796.056, 739.481 794.380, 739.223 774.680 C 738.960 754.623, 738.835 753.407, 736.862 751.750 C 734.540 749.800, 731.394 749.540, 728.750 751.080 M 785.556 751.586 C 784.168 752.975, 784.003 756.805, 784.235 782.299 L 784.500 811.424 787.250 812.962 C 789.723 814.345, 790.277 814.345, 792.750 812.965 L 795.500 811.430 796 796.965 C 796.320 787.716, 796.974 781.669, 797.814 780.196 C 801.157 774.335, 811.273 772.067, 816.331 776.045 C 819.997 778.929, 820.988 783.643, 820.994 798.227 C 821 810.546, 821.077 811.004, 823.394 812.523 C 826.262 814.402, 830.602 813.612, 832.026 810.951 C 832.562 809.950, 833 803.109, 833 795.747 C 833 780.191, 831.559 773.868, 827.024 769.523 C 823.552 766.197, 823.235 765, 825.826 765 C 828.427 765, 832 760.831, 832 757.796 C 832 753.064, 828.975 750.698, 822.309 750.216 C 812.490 749.506, 806.899 754.093, 809.807 760.475 C 810.792 762.639, 810.608 762.850, 807.184 763.475 C 805.158 763.844, 802.038 764.998, 800.250 766.040 L 797 767.933 797 760.621 C 797 754.808, 796.625 752.971, 795.171 751.655 C 792.851 749.555, 787.625 749.518, 785.556 751.586 M 847.256 751 C 841.031 752.430, 838 757.041, 838 765.082 C 838 770.573, 840.615 776.255, 843.685 777.433 C 845.066 777.962, 844.797 778.614, 842.016 781.484 C 833.928 789.828, 837.417 804.384, 849.089 811 C 852.838 813.125, 854.776 813.500, 862 813.500 C 869.513 813.500, 871.054 813.174, 875.272 810.695 C 877.897 809.152, 881.272 806.036, 882.772 803.771 L 885.500 799.652 885.801 775.821 L 886.101 751.989 883.485 750.994 C 879.702 749.556, 878.249 749.751, 876 752 C 874.130 753.870, 874 755.333, 874 774.550 C 874 796.618, 873.472 799.401, 868.835 801.758 C 863.520 804.461, 856.836 803.682, 853.077 799.923 C 850.748 797.594, 850.004 795.953, 850.015 793.173 C 850.024 791.153, 850.361 789.024, 850.765 788.442 C 852.370 786.132, 856.609 784, 859.600 784 C 863.278 784, 865.250 782.048, 865.250 778.408 C 865.250 774.745, 862.914 772.857, 857.645 772.263 C 852.141 771.643, 849.487 769.180, 850.401 765.540 C 850.824 763.855, 851.727 763, 853.085 763 C 856.940 763, 859 761.126, 859 757.620 C 859 752.239, 854.038 749.442, 847.256 751 M 908.275 750.923 C 902.562 752.365, 900 754.680, 900 758.401 C 900 763.965, 901.850 764.726, 912.250 763.434 C 917.921 762.730, 918.047 762.770, 921.389 766.314 C 927.438 772.728, 928.714 785.761, 924.205 795.076 C 921.716 800.219, 917.688 803, 912.730 803 L 909.269 803 904.884 785.763 C 900.751 769.513, 900.343 768.472, 897.748 767.570 C 895.536 766.800, 894.457 767.018, 892.248 768.681 C 888.623 771.408, 888.732 773.041, 893.827 792.500 C 899.111 812.678, 899.402 813.009, 911.806 812.978 C 925.042 812.945, 931.260 809.251, 936.181 798.500 C 938.140 794.222, 938.472 791.840, 938.485 782 C 938.498 772.089, 938.182 769.809, 936.196 765.500 C 933.447 759.533, 929.798 755.485, 924.895 752.962 C 920.603 750.754, 912.760 749.792, 908.275 750.923" stroke="none" fill="#000000" fill-rule="evenodd"/>
</svg>